<?xml version="1.0" standalone="no"?>
<!DOCTYPE svg PUBLIC "-//W3C//DTD SVG 20010904//EN"
 "http://www.w3.org/TR/2001/REC-SVG-20010904/DTD/svg10.dtd">
<svg version="1.0" xmlns="http://www.w3.org/2000/svg"
 width="700.000000pt" height="700.000000pt" viewBox="0 0 700.000000 700.000000"
 preserveAspectRatio="xMidYMid meet">
<metadata>
Created by potrace 1.11, written by Peter Selinger 2001-2013
</metadata>
<g transform="translate(0.000000,700.000000) scale(0.100000,-0.100000)"
fill="#000000" stroke="none">
<path d="M1525 5759 c-187 -23 -311 -108 -459 -314 -32 -44 -81 -101 -109
-127 -50 -46 -51 -47 -33 -67 17 -19 17 -22 -24 -100 -23 -45 -55 -91 -71
-102 -31 -22 -39 -55 -14 -61 12 -2 6 -16 -24 -58 -22 -30 -41 -58 -41 -62 0
-13 23 -9 41 8 17 15 17 14 7 -22 -5 -22 -23 -64 -38 -94 -17 -34 -26 -65 -23
-80 2 -14 -9 -62 -26 -108 -17 -46 -31 -96 -31 -111 0 -16 -9 -49 -20 -74 -17
-39 -19 -50 -8 -67 11 -17 10 -28 -6 -68 -13 -32 -20 -79 -22 -152 -2 -58 -5
-121 -6 -140 -4 -51 11 -445 23 -585 5 -66 19 -155 29 -197 11 -43 20 -92 20
-111 0 -18 7 -43 16 -55 8 -12 21 -43 28 -69 13 -50 186 -294 269 -380 l41
-43 117 0 c68 0 120 4 124 10 3 6 11 10 16 10 6 0 7 -5 4 -10 -4 -6 24 -10 76
-10 l82 0 -20 23 c-56 60 -104 188 -174 458 -67 260 -70 275 -80 452 -20 320
5 750 56 992 8 39 21 113 29 165 34 214 159 541 293 764 38 62 108 116 150
116 46 0 91 -27 112 -68 43 -84 48 -264 10 -328 -25 -41 -24 -61 2 -69 18 -6
20 -12 13 -43 -7 -33 -10 -72 -15 -217 -1 -22 4 -62 10 -90 6 -27 13 -118 15
-201 3 -113 8 -158 19 -175 8 -13 23 -53 33 -89 25 -95 37 -113 114 -180 82
-70 108 -75 143 -27 37 50 104 177 131 248 69 185 106 572 73 764 -21 119 -62
258 -94 320 -100 193 -297 339 -548 405 -94 24 -139 29 -210 19z m194 -48 c11
-7 8 -13 -13 -26 -25 -17 -28 -17 -39 -1 -12 16 -16 15 -62 -10 -56 -31 -56
-27 1 16 39 29 86 38 113 21z m91 -40 c0 -5 -29 -28 -65 -50 -36 -23 -63 -46
-60 -51 4 -6 -1 -10 -9 -10 -33 0 -14 30 47 74 61 44 87 55 87 37z m45 -76
c-43 -37 -108 -68 -85 -40 16 20 101 75 114 75 6 -1 -7 -16 -29 -35z m-412
-96 c-20 -20 -458 -327 -461 -324 -19 19 103 112 291 222 61 35 125 75 141 89
32 25 48 32 29 13z m147 7 c0 -9 -158 -121 -320 -228 -96 -63 -184 -125 -195
-137 -20 -23 -123 -77 -131 -69 -10 11 386 288 548 384 93 54 98 57 98 50z
m619 -131 c85 -149 90 -192 29 -252 -57 -53 -214 -182 -272 -222 l-46 -32 0
24 c0 13 11 34 25 47 l26 24 -23 12 -23 12 32 19 c36 20 45 34 33 52 -6 10
-13 9 -34 -4 -45 -29 -29 2 24 46 48 40 60 70 19 48 -43 -22 -25 -1 44 54 40
31 91 70 115 87 30 22 42 37 42 55 0 36 -25 32 -106 -15 -38 -22 -73 -40 -79
-40 -5 0 16 23 48 51 32 28 64 64 73 80 8 16 18 29 22 29 5 0 28 -34 51 -75z
m-210 -21 c-43 -45 -69 -60 -69 -41 0 12 84 76 99 77 3 0 -11 -16 -30 -36z
m-578 -114 c-60 -118 -111 -249 -156 -403 l-26 -87 -99 -65 c-54 -36 -108 -77
-119 -92 -14 -16 -21 -20 -21 -11 0 18 19 38 144 148 96 84 97 85 91 123 -5
34 -1 44 29 78 34 37 35 41 32 105 -2 63 -1 68 31 107 86 102 83 158 -6 105
-20 -11 -31 -17 -26 -11 14 14 178 123 181 120 2 -1 -23 -54 -55 -117z m889
-164 c0 -8 -14 -27 -31 -44 -17 -17 -28 -35 -25 -40 7 -11 -50 -59 -154 -129
-41 -28 -99 -72 -128 -98 -29 -26 -55 -45 -58 -42 -3 3 0 23 7 45 8 29 30 57
78 99 36 33 75 64 86 70 11 6 62 45 114 86 91 72 111 82 111 53z m-1295 -77
c-60 -56 -85 -75 -128 -103 l-28 -17 19 37 c14 27 39 48 103 85 46 26 85 48
87 48 2 1 -22 -22 -53 -50z m5 -123 c0 -2 -39 -37 -87 -77 -48 -40 -83 -68
-79 -61 6 11 157 141 164 142 1 0 2 -2 2 -4z m95 -14 c-53 -42 -60 -46 -33
-19 16 15 31 27 35 27 4 0 3 -3 -2 -8z m1100 -58 c-22 -20 -72 -58 -111 -84
-38 -26 -94 -74 -123 -106 -38 -41 -55 -54 -61 -45 -14 24 2 53 46 84 24 17
46 38 49 46 3 9 23 24 45 33 23 9 40 23 40 32 0 9 8 16 18 16 9 1 42 14 72 30
30 16 57 29 60 29 3 0 -13 -16 -35 -35z m107 -9 c-6 -33 -36 -62 -104 -100
-62 -35 -77 -55 -43 -55 33 0 19 -19 -52 -70 -42 -30 -92 -69 -112 -86 -20
-17 -46 -34 -58 -38 -20 -6 -23 -4 -23 18 0 21 5 26 24 26 28 0 34 8 56 63 12
30 46 64 155 152 77 62 145 112 150 111 6 -2 8 -11 7 -21z m-1322 -26 c-51
-45 -170 -138 -155 -121 16 18 189 161 195 161 3 0 -15 -18 -40 -40z m110 -3
c0 -8 -162 -138 -166 -133 -4 4 153 137 162 137 2 0 4 -2 4 -4z m1200 -130 c0
-25 -44 -64 -87 -79 -34 -11 -40 -12 -36 -1 3 8 19 23 37 33 18 11 41 29 51
41 21 24 35 26 35 6z m-1111 -49 c-5 -21 -14 -35 -18 -32 -12 7 -101 -74 -101
-92 0 -15 -191 -204 -214 -212 -6 -2 -41 -33 -78 -69 -37 -36 -70 -63 -73 -60
-4 3 3 24 14 46 14 27 51 64 113 111 51 39 98 71 105 71 7 0 13 7 13 15 0 24
-52 18 -77 -8 -28 -30 -102 -81 -108 -75 -3 3 93 82 212 176 119 94 218 170
220 169 1 -2 -2 -20 -8 -40z m1091 -122 c0 -27 -4 -30 -59 -39 l-35 -6 40 34
c47 42 54 44 54 11z m-170 -24 c-19 -14 -62 -54 -95 -88 -33 -35 -63 -63 -68
-63 -4 0 -7 11 -7 23 0 18 17 35 69 71 41 28 68 54 67 64 -1 11 9 18 29 22 43
9 45 1 5 -29z m-956 -63 l-6 -55 -55 -18 c-30 -11 -57 -25 -60 -32 -3 -6 -30
-26 -61 -44 -32 -17 -70 -43 -87 -58 -16 -15 -52 -40 -80 -55 l-50 -27 75 72
c88 84 322 281 327 275 2 -2 1 -28 -3 -58z m-29 -286 l-7 -130 -29 10 c-28 10
-28 11 -14 38 19 36 19 59 1 66 -24 9 -54 -14 -65 -49 -16 -47 -317 -344 -307
-302 9 36 35 69 89 114 23 19 67 58 97 87 31 28 66 55 78 58 23 8 27 36 7 43
-6 2 -40 -23 -76 -55 -144 -128 -125 -96 46 76 98 100 181 180 183 177 2 -2 1
-62 -3 -133z m862 123 c8 -22 -6 -33 -17 -15 -13 20 -12 30 0 30 6 0 13 -7 17
-15z m-993 -17 c-11 -13 -56 -63 -100 -113 -44 -49 -83 -98 -87 -107 -3 -10
-12 -18 -18 -18 -6 0 -31 -21 -55 -47 -48 -53 -51 -51 -29 22 19 61 45 90 165
175 52 37 104 77 114 89 11 11 21 21 24 21 3 0 -3 -10 -14 -22z m1106 -28
c-12 -16 -27 -30 -33 -30 -19 0 -37 -47 -23 -60 9 -7 30 6 74 49 52 49 62 55
62 38 0 -25 -50 -116 -74 -136 -12 -10 -19 -9 -39 6 -28 20 -67 73 -67 90 0
11 96 72 113 73 5 0 -1 -13 -13 -30z m-1209 -742 c-110 -120 -141 -159 -141
-181 0 -39 24 -44 63 -14 91 73 94 71 12 -6 l-90 -86 -12 62 c-24 121 -27 113
110 229 130 111 177 147 190 148 4 0 -55 -69 -132 -152z m216 89 c-8 -13 -51
-46 -95 -74 l-81 -52 92 89 c59 57 93 83 95 74 2 -8 -3 -25 -11 -37z m7 -143
c-4 -23 -18 -35 -61 -57 -30 -16 -57 -26 -59 -24 -3 2 23 30 57 61 34 31 63
55 65 53 2 -2 1 -17 -2 -33z m-56 -127 c-37 -34 -117 -109 -178 -166 l-110
-103 0 35 c0 19 8 44 18 54 43 49 303 238 332 242 3 0 -25 -28 -62 -62z m-119
-247 c-102 -99 -139 -125 -139 -102 -1 15 216 211 234 212 13 0 -19 -37 -95
-110z m105 -28 c2 -4 -23 -29 -57 -55 -34 -26 -78 -59 -97 -74 -26 -21 -21
-12 20 32 52 56 106 103 122 105 4 0 9 -4 12 -8z m16 -111 c0 -5 -20 -25 -45
-45 -47 -39 -56 -65 -30 -86 13 -11 21 -8 50 20 19 19 37 31 41 27 8 -8 -85
-107 -102 -107 -7 0 -26 16 -42 36 l-30 36 71 64 c71 62 87 72 87 55z m140
-115 c0 -4 -54 -65 -100 -112 -37 -37 -38 -50 -5 -61 24 -8 24 -10 11 -28 -14
-20 -15 -19 -45 9 -37 35 -39 59 -8 85 121 102 147 121 147 107z"/>
<path d="M3471 4612 c-15 -12 -27 -45 -41 -115 -11 -53 -35 -135 -55 -182 -23
-57 -33 -93 -29 -112 6 -29 -25 -125 -70 -223 l-23 -50 -7 47 c-3 27 -13 105
-21 175 -21 177 -32 221 -68 276 -30 43 -111 101 -144 102 -27 0 -73 -54 -94
-111 -12 -32 -24 -59 -26 -59 -3 0 -18 11 -35 25 -45 38 -86 36 -168 -5 -75
-38 -99 -67 -165 -200 -32 -63 -73 -135 -92 -160 -28 -37 -34 -51 -29 -78 3
-24 -3 -51 -21 -90 -16 -36 -26 -79 -28 -119 -8 -156 -179 -566 -329 -787 -33
-50 -85 -129 -115 -176 -30 -47 -92 -122 -137 -167 l-83 -83 111 0 111 0 116
87 c193 144 190 142 166 114 -23 -27 -156 -146 -200 -178 l-30 -22 46 -1 c38
0 55 6 93 35 51 40 60 36 19 -7 l-27 -28 68 0 67 0 29 63 c23 50 93 260 174
520 l12 39 54 -84 c90 -136 197 -195 370 -205 83 -5 101 -3 135 15 70 35 102
83 139 203 36 118 62 251 81 414 23 200 24 204 45 215 45 24 50 -60 24 -390
-23 -283 -21 -341 13 -399 63 -108 171 -190 233 -176 50 11 66 60 90 285 17
155 58 417 75 480 9 30 20 76 25 103 5 26 21 64 35 84 l25 38 -3 -275 c-2
-245 0 -281 16 -328 25 -69 62 -105 132 -125 73 -21 100 -11 114 40 6 21 18
65 27 98 9 33 53 163 97 290 l82 230 6 -100 c4 -55 7 -145 8 -200 2 -140 50
-347 77 -338 6 2 24 -16 40 -39 40 -59 60 -74 125 -92 71 -20 112 -12 155 31
38 37 114 187 114 224 1 35 14 8 35 -71 20 -72 52 -113 126 -161 81 -52 83
-50 128 139 44 180 184 672 190 666 3 -3 4 -103 3 -222 -4 -225 7 -358 36
-461 l17 -59 77 -41 c141 -75 152 -65 252 204 95 255 99 265 108 265 8 0 15
-37 23 -131 7 -91 41 -217 70 -260 26 -41 130 -99 174 -99 37 1 101 33 133 66
29 31 148 270 198 399 17 44 34 103 37 132 l6 52 -38 15 c-21 9 -57 16 -81 16
-42 0 -44 -1 -44 -29 0 -38 -140 -308 -150 -290 -5 8 0 88 10 179 27 245 43
481 38 547 -4 52 -10 67 -55 127 -61 82 -106 116 -149 116 -50 0 -76 -16 -109
-68 -16 -26 -42 -53 -57 -60 -22 -10 -29 -23 -38 -70 -26 -128 -42 -190 -85
-320 -24 -75 -49 -166 -54 -202 -5 -36 -18 -87 -29 -115 l-21 -50 0 35 c-1 19
6 109 14 200 8 91 18 262 21 381 l7 215 -26 56 c-29 65 -62 91 -116 91 -102 0
-140 -70 -343 -643 -17 -47 -31 -86 -32 -87 0 -1 -1 103 -1 230 0 227 -1 233
-23 265 -29 40 -55 54 -99 54 -66 0 -81 -30 -128 -262 -15 -69 -27 -161 -29
-205 -3 -64 -9 -94 -35 -150 -17 -38 -29 -75 -27 -82 3 -6 -11 -52 -30 -100
-20 -48 -44 -110 -55 -138 -10 -27 -33 -63 -50 -80 l-31 -30 7 115 c3 63 11
165 16 225 59 684 60 660 -22 750 -72 78 -106 97 -152 84 -61 -17 -74 -41
-208 -404 -40 -110 -75 -192 -77 -183 -2 9 4 70 13 135 39 295 40 318 22 377
-29 91 -84 150 -195 208 -53 27 -112 -56 -192 -271 -34 -91 -72 -193 -85 -226
l-23 -60 4 100 c3 55 9 159 14 232 13 179 5 254 -32 321 -30 54 -73 93 -120
111 -21 8 -31 7 -47 -7z m-441 -161 c0 -12 -51 -73 -56 -68 -9 9 27 77 41 77
8 0 15 -4 15 -9z m-15 -175 c-61 -55 -70 -60 -60 -35 5 14 102 89 114 89 3 0
-21 -24 -54 -54z m125 16 c0 -19 -170 -174 -197 -180 -30 -7 8 38 99 118 51
44 94 80 95 80 2 0 3 -8 3 -18z m20 -112 c0 -8 -15 -20 -32 -26 -18 -6 -42
-15 -53 -19 -12 -5 -2 10 24 38 44 46 60 48 61 7z m-370 -18 c0 -36 -98 -332
-110 -332 -3 0 -11 9 -18 20 -11 18 -8 26 23 67 36 47 42 67 25 78 -6 4 2 21
20 42 l31 35 -19 32 -19 32 26 16 c30 19 41 21 41 10z m698 -44 c-18 -24 -58
-74 -87 -111 -29 -37 -55 -66 -58 -63 -12 12 53 109 107 159 34 31 64 57 67
57 3 0 -10 -19 -29 -42z m1032 18 c0 -2 2 -11 5 -19 5 -10 -1 -13 -25 -9 -25
3 -28 7 -19 18 10 13 39 20 39 10z m-1387 -95 c-40 -35 -136 -85 -154 -79 -5
2 32 38 83 80 88 72 93 75 101 55 7 -18 2 -28 -30 -56z m-267 7 c11 -21 14
-45 11 -72 -9 -69 77 -256 118 -256 6 0 20 -9 30 -20 16 -18 17 -33 12 -127
-12 -216 -60 -412 -122 -495 -37 -51 -57 -58 -93 -32 -37 26 -51 67 -67 201
-19 163 -19 309 1 398 8 39 22 114 29 168 8 54 17 102 19 106 3 4 10 38 16 76
15 97 20 103 46 53z m-247 -24 c-25 -31 -129 -95 -129 -81 0 18 14 30 81 67
63 34 66 35 48 14z m1911 -5 c0 -12 -15 -35 -34 -53 -19 -17 -46 -56 -59 -86
-21 -45 -26 -50 -26 -29 -1 15 13 45 32 70 18 24 43 61 56 82 26 43 31 45 31
16z m-1365 -58 c-11 -11 -45 -33 -75 -51 l-55 -31 65 60 c40 37 69 56 75 50 6
-6 2 -16 -10 -28z m2079 -127 c-20 -54 -41 -103 -46 -109 -7 -7 -9 -5 -5 5 3
8 23 66 44 129 21 63 39 105 41 94 2 -11 -14 -64 -34 -119z m-2064 26 c0 -21
-45 -50 -77 -50 -13 0 -7 10 22 35 46 40 55 42 55 15z m856 -86 c-3 -8 -14
-14 -25 -14 -11 0 -27 -7 -35 -16 -38 -38 -5 26 38 74 l21 24 3 -27 c2 -15 1
-33 -2 -41z m-1351 -13 c-5 -25 -12 -31 -32 -31 -27 0 -27 0 2 47 23 38 40 29
30 -16z m1815 -172 c0 -68 -3 -90 -12 -86 -8 2 -13 22 -13 48 0 24 -4 50 -8
56 -7 11 19 73 30 73 2 0 3 -41 3 -91z m-947 54 c-3 -10 -12 -25 -20 -35 -8
-9 -13 -25 -11 -35 1 -10 -4 -33 -11 -51 -12 -29 -12 -35 -1 -42 8 -5 23 -4
34 2 12 6 4 -8 -19 -31 -45 -48 -66 -54 -35 -12 22 32 13 49 -17 32 -22 -11
-89 -100 -85 -112 4 -15 -15 -10 -21 5 -8 21 19 65 81 130 45 47 53 61 40 64
-26 5 -23 11 24 59 48 48 50 50 41 26z m2345 -158 c-31 -58 -44 -71 -33 -32 7
21 52 87 60 87 1 0 -10 -25 -27 -55z m-1888 -8 c0 -13 -16 -41 -35 -63 l-36
-39 7 35 c5 28 47 90 61 90 2 0 3 -11 3 -23z m1352 -39 l-27 -63 -3 43 c-3 35
1 46 20 62 37 31 38 24 10 -42z m-872 -69 c0 -45 -2 -50 -15 -39 -18 15 -20
61 -3 78 18 18 18 17 18 -39z m-960 13 c0 -7 -62 -68 -137 -137 -58 -51 -35
-11 38 68 62 68 99 93 99 69z m-876 -68 c3 -9 6 -36 6 -60 0 -44 -1 -45 -46
-65 -26 -11 -48 -18 -50 -16 -2 2 12 22 32 45 29 34 33 45 25 61 -13 23 -5 51
14 51 7 0 16 -7 19 -16z m929 -68 c4 4 7 2 7 -5 0 -6 -8 -14 -17 -18 -10 -3
-26 -13 -35 -21 -16 -14 -16 -12 -1 27 12 32 14 47 5 65 -6 13 -8 27 -4 31 4
3 13 -15 22 -40 9 -25 19 -43 23 -39z m907 -6 c0 -31 -6 -47 -26 -65 -36 -33
-44 -31 -34 5 9 30 48 100 56 100 2 0 4 -18 4 -40z m1422 -54 c-36 -64 -52
-74 -52 -34 0 15 70 94 87 98 1 0 -15 -29 -35 -64z m-2508 -46 c-39 -55 -55
-61 -30 -12 13 25 51 62 63 62 2 0 -13 -23 -33 -50z m1967 -21 c-15 -46 -19
-51 -25 -32 -7 21 3 51 27 81 18 22 17 7 -2 -49z m-1469 -1 c3 -28 8 -34 41
-43 29 -8 35 -13 26 -22 -26 -26 -109 46 -95 82 9 26 25 17 28 -17z m-463 -90
c-79 -107 -79 -107 -79 -74 0 20 17 44 63 92 35 35 66 64 70 64 4 0 -20 -37
-54 -82z m132 -10 l-16 -83 -3 52 c-2 33 3 63 13 83 8 16 17 30 19 30 1 0 -4
-37 -13 -82z m1427 25 c-9 -47 -14 -53 -35 -53 l-25 0 23 38 c13 20 27 45 33
54 15 25 15 19 4 -39z m-324 5 c-45 -74 -83 -126 -88 -121 -13 14 -4 33 40 82
44 49 64 65 48 39z m-2370 -46 c10 -17 -20 -57 -40 -54 -12 1 -39 -13 -65 -35
-84 -73 -84 -66 1 15 86 82 95 88 104 74z m1183 -19 c-10 -22 -13 -24 -15 -9
-2 10 2 22 10 27 19 12 19 12 5 -18z m22 -54 c-12 -35 -54 -79 -77 -79 -23 0
-24 29 -1 69 12 22 26 38 30 36 4 -3 18 -1 31 4 12 5 24 8 26 6 1 -1 -3 -17
-9 -36z m-480 4 c-24 -29 -120 -60 -104 -33 3 6 19 10 34 10 15 0 36 9 46 20
22 24 43 27 24 3z m496 -103 c0 -38 -15 -54 -30 -30 -4 7 23 70 30 70 0 0 0
-18 0 -40z m-1360 -41 c-51 -51 -153 -125 -161 -116 -8 8 187 167 205 167 3 0
-17 -23 -44 -51z"/>
<path d="M2433 2019 c-188 -436 -268 -632 -259 -635 7 -3 52 -4 101 -2 l89 3
45 112 46 113 250 0 250 0 49 -115 48 -116 102 3 c84 3 100 6 98 18 -7 30
-535 1250 -541 1250 -4 0 -129 -284 -278 -631z m363 -27 l81 -197 -83 -3 c-46
-1 -123 -1 -172 0 l-89 3 85 202 c47 111 88 200 91 197 3 -3 42 -94 87 -202z"/>
<path d="M5727 2629 c-185 -26 -298 -164 -285 -347 8 -107 60 -189 166 -262
19 -12 95 -51 169 -86 229 -107 249 -128 244 -256 -3 -68 -102 -128 -211 -128
-90 0 -148 26 -219 97 l-65 65 -78 -38 c-43 -21 -78 -41 -78 -44 0 -16 65
-102 104 -138 86 -80 205 -122 341 -122 139 0 241 35 316 110 61 61 89 135 89
235 0 106 -28 174 -100 247 -49 48 -84 70 -231 141 -196 95 -234 122 -249 176
-29 110 63 195 189 176 68 -10 102 -27 143 -73 l38 -42 75 48 c41 26 75 51 75
56 0 4 -30 38 -67 75 -57 57 -78 71 -133 89 -78 24 -155 31 -233 21z"/>
<path d="M3422 2003 l3 -618 98 -3 97 -3 0 231 0 230 113 0 112 -1 135 -224
134 -225 108 0 c59 0 108 2 108 4 0 2 -65 111 -145 242 l-145 238 37 20 c129
65 194 176 194 331 -1 202 -106 330 -311 381 -38 9 -129 13 -298 14 l-242 0 2
-617z m545 409 c55 -29 80 -62 93 -127 23 -111 -13 -202 -95 -244 -45 -22 -65
-25 -197 -29 l-148 -4 0 217 0 217 153 -4 c132 -3 157 -7 194 -26z"/>
<path d="M4380 2530 l0 -90 180 0 180 0 2 -527 3 -528 95 0 95 0 3 528 2 527
185 0 185 0 0 90 0 90 -465 0 -465 0 0 -90z"/>
</g>
</svg>
